<svg xmlns="http://www.w3.org/2000/svg" version="1.1" xmlns:xlink="http://www.w3.org/1999/xlink" xmlns:svgjs="http://svgjs.dev/svgjs" width="1200" height="560" preserveAspectRatio="none" viewBox="0 0 1200 560"><g mask="url(&quot;#SvgjsMask1135&quot;)" fill="none"><path d="M 0,108 C 40,116 120,148 200,148 C 280,148 320,83.8 400,108 C 480,132.2 520,287 600,269 C 680,251 720,34 800,18 C 880,2 920,191.8 1000,189 C 1080,186.2 1160,41 1200,4L1200 560L0 560z" fill="rgba(14, 164, 233, 1)"></path><path d="M 0,334 C 80,362.6 240,483.8 400,477 C 560,470.2 640,289.8 800,300 C 960,310.2 1120,482.4 1200,528L1200 560L0 560z" fill="rgba(2, 133, 199, 1)"></path></g><defs><mask id="SvgjsMask1135"><rect width="1200" height="560" fill="#ffffff"></rect></mask></defs></svg>